<?xml version="1.0" encoding="utf-8"?>
<svg version="1.1" xmlns:xlink="http://www.w3.org/1999/xlink" width="37px" height="30px" xmlns="http://www.w3.org/2000/svg">
  <g transform="matrix(1 0 0 1 -477 -95 )">
    <path d="M 32.63324873096447 4.734375000000001  C 34.088832487309645 4.578125  35.54441624365482 4.187499999999995  37 3.562500000000001  C 35.95135363790187 5.0937499999999964  34.68358714043993 6.398437499999999  33.19670050761421 7.476562500000002  C 33.212351945854486 7.695312499999999  33.22017766497462 8.023437499999996  33.22017766497462 8.460937499999998  C 33.22017766497462 10.492187499999996  32.92280033840948 12.519531249999998  32.328045685279186 14.54296875  C 31.7332910321489 16.566406249999996  30.829420473773265 18.5078125  29.616434010152286 20.3671875  C 28.403447546531304 22.2265625  26.95960236886633 23.87109375  25.28489847715736 25.30078125  C 23.610194585448394 26.73046875  21.59115905245347 27.87109375  19.22779187817259 28.72265625  C 16.86442470389171 29.574218749999996  14.336717428087988 30  11.644670050761421 30  C 7.403130287648055 30  3.5215736040609134 28.8671875  0 26.6015625  C 0.5478003384094757 26.664062500000004  1.158206429780034 26.6953125  1.8312182741116751 26.6953125  C 5.3527918781725905 26.6953125  8.49090524534687 25.6171875  11.245558375634518 23.4609375  C 9.602157360406093 23.429687499999996  8.130922165820644 22.925781249999996  6.831852791878173 21.94921875  C 5.532783417935702 20.972656249999996  4.640651438240272 19.726562499999996  4.155456852791878 18.2109375  C 4.6719543147208125 18.2890625  5.149323181049071 18.328125  5.58756345177665 18.328125  C 6.260575296108291 18.328125  6.925761421319796 18.2421875  7.583121827411167 18.0703125  C 5.830160744500847 17.7109375  4.378489847715737 16.83984375  3.2281091370558377 15.45703125  C 2.077728426395939 14.07421875  1.5025380710659904 12.46875  1.5025380710659897 10.640625000000002  L 1.5025380710659897 10.546875  C 2.5668358714043995 11.140625  3.7093908629441623 11.460937499999998  4.930203045685279 11.507812499999998  C 3.897208121827411 10.820312499999998  3.075507614213198 9.921874999999998  2.4651015228426396 8.812499999999998  C 1.8546954314720812 7.703124999999995  1.5494923857868022 6.4999999999999964  1.5494923857868022 5.203125000000001  C 1.5494923857868022 3.828124999999999  1.8938240270727582 2.5546875000000013  2.58248730964467 1.3828125000000013  C 4.476311336717428 3.710937499999999  6.780985617597294 5.57421875  9.496510152284264 6.97265625  C 12.212034686971236 8.37109375  15.119289340101522 9.1484375  18.218274111675125 9.3046875  C 18.093062605752962 8.710937499999998  18.03045685279188 8.132812499999996  18.03045685279188 7.570312499999999  C 18.03045685279188 5.476562499999995  18.76998730964467 3.69140625  20.24904822335025 2.214843750000001  C 21.728109137055835 0.7382812500000013  23.516285956006772 0  25.613578680203045 0  C 27.804780033840952 0  29.65164974619289 0.7968750000000013  31.154187817258883 2.390625000000001  C 32.8601945854484 2.062499999999999  34.46446700507614 1.4531250000000007  35.96700507614213 0.5625000000000013  C 35.38790186125212 2.3593749999999956  34.2766497461929 3.75  32.63324873096447 4.734375000000001  Z " fill-rule="nonzero" fill="#3a8891" stroke="none" transform="matrix(1 0 0 1 477 95 )" />
  </g>
</svg>