<?xml version="1.0" encoding="utf-8"?>
<svg version="1.1" xmlns:xlink="http://www.w3.org/1999/xlink" width="32px" height="21px" xmlns="http://www.w3.org/2000/svg">
  <g transform="matrix(1 0 0 1 -559 -100 )">
    <path d="M 12.700111482720178 5.983333333333333  L 12.700111482720178 14.366666666666667  L 21.333333333333332 10.200000000000001  L 12.700111482720178 5.983333333333333  Z M 4.816053511705686 0.29999999999999893  C 7.8008175399479756 0.09999999999999964  11.528799702712744 0  16 0  C 17.997770345596432 0  19.927164622816797 0.02499999999999991  21.788182831661093 0.07499999999999973  C 23.649201040505393 0.12499999999999956  25.013749535488667 0.17777777777777637  25.881828316610925 0.2333333333333325  L 27.183946488294314 0.29999999999999893  C 27.195837978446676 0.29999999999999893  27.296915644741734 0.30833333333333224  27.487179487179485 0.32499999999999885  C 27.677443329617244 0.3416666666666678  27.814195466369384 0.3583333333333344  27.897435897435898 0.375000000000001  C 27.980676328502415 0.3916666666666676  28.120401337792643 0.4166666666666675  28.316610925306577 0.45000000000000073  C 28.512820512820515 0.48333333333333395  28.682274247491637 0.5277777777777751  28.824972129319956 0.5833333333333336  C 28.96767001114827 0.6388888888888874  29.13415087328131 0.7111111111111078  29.32441471571906 0.7999999999999995  C 29.514678558156824 0.8888888888888865  29.6989966555184 0.9972222222222218  29.87736900780379 1.1250000000000007  C 30.05574136008919 1.2527777777777749  30.228167967298408 1.3999999999999997  30.39464882943144 1.5666666666666658  C 30.465997770345595 1.6333333333333322  30.558156819026387 1.736111111111109  30.671125975473803 1.8750000000000004  C 30.784095131921223 2.013888888888887  30.956521739130437 2.3388888888888886  31.18840579710145 2.849999999999999  C 31.42028985507247 3.3611111111111076  31.577852099591233 3.9222222222222207  31.661092530657747 4.533333333333333  C 31.75622445187663 5.244444444444444  31.830546265328877 6.002777777777776  31.884057971014492 6.808333333333333  C 31.937569676700114 7.613888888888888  31.970271274619105 8.244444444444442  31.98216276477146 8.7  L 31.98216276477146 9.366666666666665  L 31.98216276477146 11.633333333333335  C 31.99405425492382 13.24444444444444  31.887030843552584 14.855555555555554  31.661092530657747 16.466666666666665  C 31.577852099591233 17.07777777777778  31.42920847268674 17.630555555555553  31.21516164994426 18.125  C 31.00111482720179 18.619444444444444  30.81085098476403 18.961111111111112  30.644370122630992 19.15  L 30.39464882943144 19.433333333333334  C 30.228167967298408 19.6  30.05574136008919 19.74722222222222  29.87736900780379 19.875  C 29.6989966555184 20.00277777777778  29.514678558156824 20.108333333333334  29.32441471571906 20.191666666666666  C 29.13415087328131 20.275  28.96767001114827 20.344444444444445  28.824972129319956 20.4  C 28.682274247491637 20.455555555555552  28.512820512820515 20.5  28.316610925306577 20.53333333333333  C 28.120401337792643 20.566666666666666  27.977703455964324 20.591666666666665  27.888517279821627 20.60833333333333  C 27.79933110367893 20.625  27.662578966926795 20.641666666666666  27.47826086956522 20.65833333333333  C 27.293942772203643 20.675  27.195837978446676 20.683333333333334  27.183946488294314 20.683333333333334  C 24.199182460052025 20.894444444444446  20.471200297287254 21  16 21  C 13.538461538461538 20.977777777777778  11.40096618357488 20.941666666666666  9.587513935340022 20.891666666666666  C 7.774061687105165 20.84166666666667  6.581939799331104 20.8  6.011148272017837 20.766666666666666  L 5.137123745819398 20.700000000000003  L 4.494983277591973 20.633333333333333  C 4.066889632107023 20.57777777777778  3.7428465254552212 20.52222222222222  3.5228539576365665 20.466666666666665  C 3.3028613898179118 20.41111111111111  2.999628390932739 20.294444444444448  2.613154960981048 20.116666666666667  C 2.226681531029357 19.938888888888886  1.890746934225195 19.711111111111112  1.605351170568562 19.433333333333334  C 1.5340022296544036 19.366666666666667  1.4418431809736159 19.26388888888889  1.3288740245261985 19.125  C 1.2159048680787812 18.986111111111114  1.0434782608695652 18.66111111111111  0.8115942028985508 18.150000000000002  C 0.5797101449275363 17.63888888888889  0.42214790040877 17.07777777777778  0.33890746934225197 16.466666666666665  C 0.24377554812337424 15.755555555555555  0.169453734671126 14.997222222222222  0.11594202898550725 14.191666666666668  C 0.06243032329988852 13.386111111111108  0.029728725380899296 12.755555555555555  0.017837235228539576 12.299999999999999  L 0.017837235228539576 11.633333333333335  L 0.017837235228539576 9.366666666666665  C 0.005945745076179857 7.755555555555555  0.11296915644741731 6.144444444444443  0.33890746934225197 4.533333333333333  C 0.42214790040877 3.9222222222222207  0.5707915273132664 3.369444444444441  0.7848383500557413 2.874999999999999  C 0.9988851727982163 2.3805555555555546  1.1891490152359718 2.038888888888887  1.3556298773690079 1.8500000000000005  L 1.605351170568562 1.5666666666666658  C 1.7718320327015982 1.3999999999999997  1.9442586399108137 1.2527777777777749  2.1226309921962097 1.1250000000000007  C 2.301003344481605 0.9972222222222218  2.485321441843181 0.8888888888888865  2.6755852842809364 0.7999999999999995  C 2.8658491267186923 0.7111111111111078  3.032329988851728 0.6388888888888874  3.1750278706800446 0.5833333333333336  C 3.317725752508361 0.5277777777777751  3.4871794871794872 0.48333333333333395  3.6833890746934226 0.45000000000000073  C 3.8795986622073584 0.4166666666666675  4.0193236714975855 0.3916666666666676  4.102564102564102 0.375000000000001  C 4.185804533630621 0.3583333333333344  4.322556670382758 0.3416666666666678  4.512820512820513 0.32499999999999885  C 4.703084355258269 0.30833333333333224  4.804162021553327 0.29999999999999893  4.816053511705686 0.29999999999999893  Z " fill-rule="nonzero" fill="#3a8891" stroke="none" transform="matrix(1 0 0 1 559 100 )" />
  </g>
</svg>