<?xml version="1.0" encoding="utf-8"?>
<svg version="1.1" xmlns:xlink="http://www.w3.org/1999/xlink" width="17px" height="32px" xmlns="http://www.w3.org/2000/svg">
  <g transform="matrix(1 0 0 1 -726 -94 )">
    <path d="M 12.51388888888889 0  C 14.44212962962963 0  15.9375 0.07692307692307665  17 0.23076923076922995  L 17 5.307692307692307  L 13.91087962962963 5.307692307692307  C 12.782793209876544 5.307692307692307  12.02199074074074 5.53846153846154  11.628472222222223 6  C 11.234953703703704 6.46153846153846  11.038194444444445 7.153846153846153  11.038194444444445 8.076923076923077  L 11.038194444444445 11.71153846153846  L 16.80324074074074 11.71153846153846  L 16.03587962962963 17.403846153846153  L 11 17.403846153846153  L 11 32  L 5 32  L 5 17.403846153846153  L 0 17.403846153846153  L 0 11.71153846153846  L 5.017361111111112 11.71153846153846  L 5.017361111111112 7.51923076923077  C 5.017361111111112 5.134615384615383  5.6994598765432105 3.285256410256409  7.063657407407407 1.9711538461538467  C 8.427854938271606 0.6570512820512846  10.2445987654321 0  12.51388888888889 0  Z " fill-rule="nonzero" fill="#3a8891" stroke="none" transform="matrix(1 0 0 1 726 94 )" />
  </g>
</svg>