<?xml version="1.0" encoding="utf-8"?>
<svg version="1.1" xmlns:xlink="http://www.w3.org/1999/xlink" width="19px" height="23px" xmlns="http://www.w3.org/2000/svg">
  <g transform="matrix(1 0 0 1 -97 -391 )">
    <path d="M 17.642857142857142 7.676701570680628  C 18.54761904761905 6.6932809773123925  19 5.514179755671904  19 4.1393979057591626  C 19 2.965314136125655  18.64261904761905 1.9818935427574194  17.927857142857142 1.189136125654451  C 17.21309523809524 0.39637870855148283  16.326428571428572 0  15.267857142857144 0  C 14.046428571428573 0  12.983333333333334 0.501745200698078  12.078571428571427 1.505235602094242  L 1.5335714285714288 13.185863874345548  C 0.5111904761904764 14.339877835951137  0 15.699607329842932  0 17.26505235602094  C 0 18.860602094240836  0.49761904761904774 20.215314136125656  1.492857142857143 21.329188481675395  C 2.4880952380952386 22.44306282722513  3.705 23  5.143571428571429 23  C 6.573095238095238 23  7.808095238095238 22.433027923211174  8.848571428571429 21.29908376963351  L 17.059285714285714 12.177356020942408  C 17.149761904761906 12.077006980802793  17.195 11.966623036649215  17.195 11.846204188481677  C 17.195 11.68564572425829  17.057023809523812 11.452334205933681  16.78107142857143 11.146269633507853  C 16.505119047619047 10.840205061082026  16.294761904761906 10.687172774869108  16.15 10.687172774869108  C 16.032380952380954 10.687172774869108  15.928333333333335 10.737347294938921  15.837857142857143 10.837696335078533  L 7.613571428571428 19.974476439790575  C 6.898809523809525 20.74716404886562  6.080000000000001 21.13350785340314  5.157142857142857 21.13350785340314  C 4.198095238095239 21.13350785340314  3.3883333333333336 20.75719895287958  2.7278571428571428 20.00458115183246  C 2.067380952380953 19.25196335078534  1.737142857142857 18.343804537521816  1.737142857142857 17.280104712041886  C 1.737142857142857 16.226439790575917  2.0809523809523816 15.318280977312392  2.7685714285714287 14.55562827225131  L 13.299999999999999 2.859947643979057  C 13.87 2.2277486910994755  14.525952380952383 1.9116492146596848  15.267857142857144 1.9116492146596848  C 15.846904761904764 1.9116492146596848  16.326428571428572 2.1223821989528804  16.70642857142857 2.5438481675392666  C 17.08642857142857 2.965314136125655  17.27642857142857 3.497164048865619  17.27642857142857 4.1393979057591626  C 17.27642857142857 4.9622600349040145  16.99142857142857 5.689790575916231  16.42142857142857 6.32198952879581  L 8.536428571428571 15.06740837696335  C 8.301190476190477 15.30824607329843  8.029761904761905 15.428664921465968  7.722142857142857 15.428664921465968  C 7.459761904761907 15.428664921465968  7.242619047619049 15.333333333333336  7.070714285714286 15.142670157068062  C 6.898809523809525 14.952006980802793  6.812857142857143 14.711169284467713  6.812857142857143 14.420157068062826  C 6.812857142857143 14.099040139616058  6.925952380952381 13.803010471204187  7.152142857142858 13.532068062827225  L 12.71642857142857 7.3606020942408374  C 12.806904761904763 7.2602530541012245  12.852142857142859 7.149869109947644  12.852142857142857 7.029450261780103  C 12.852142857142859 6.868891797556722  12.711904761904764 6.633071553228623  12.43142857142857 6.32198952879581  C 12.150952380952383 6.010907504363004  11.938333333333334 5.855366492146597  11.793571428571427 5.855366492146597  C 11.685000000000002 5.855366492146597  11.585476190476191 5.905541012216407  11.495 6.005890052356022  L 5.930714285714286 12.177356020942408  C 5.360714285714286 12.78948516579407  5.075714285714286 13.537085514834205  5.075714285714286 14.420157068062826  C 5.075714285714286 15.24301919720768  5.333571428571428 15.940445026178011  5.849285714285715 16.512434554973822  C 6.365 17.084424083769633  6.993809523809524 17.37041884816754  7.735714285714286 17.37041884816754  C 8.531904761904762 17.37041884816754  9.20595238095238 17.05431937172775  9.757857142857143 16.42212041884817  L 17.642857142857142 7.676701570680628  Z " fill-rule="nonzero" fill="#000000" stroke="none" transform="matrix(1 0 0 1 97 391 )" />
  </g>
</svg>