<?xml version="1.0" encoding="utf-8"?>
<svg version="1.1" xmlns:xlink="http://www.w3.org/1999/xlink" width="28px" height="28px" xmlns="http://www.w3.org/2000/svg">
  <g transform="matrix(1 0 0 1 -360 -26 )">
    <path d="M 17.171875 17.171875  C 18.64703525641026 15.696714743589741  19.384615384615383 13.921474358974358  19.384615384615383 11.846153846153847  C 19.384615384615383 9.770833333333332  18.64703525641026 7.995592948717947  17.171875 6.520432692307692  C 15.696714743589745 5.045272435897434  13.92147435897436 4.307692307692308  11.846153846153847 4.307692307692308  C 9.770833333333334 4.307692307692308  7.995592948717951 5.045272435897434  6.520432692307692 6.520432692307692  C 5.045272435897436 7.995592948717947  4.307692307692308 9.770833333333332  4.307692307692308 11.846153846153847  C 4.307692307692308 13.921474358974358  5.045272435897436 15.696714743589741  6.520432692307692 17.171875  C 7.995592948717951 18.647035256410252  9.770833333333334 19.384615384615383  11.846153846153847 19.384615384615383  C 13.92147435897436 19.384615384615383  15.696714743589745 18.647035256410252  17.171875 17.171875  Z M 27.377403846153847 24.331730769230766  C 27.79246794871795 24.746794871794876  28 25.251602564102566  28 25.846153846153847  C 28 26.429487179487182  27.786858974358978 26.934294871794876  27.360576923076923 27.360576923076923  C 26.934294871794876 27.786858974358974  26.429487179487182 28  25.846153846153847 28  C 25.240384615384617 28  24.735576923076923 27.786858974358974  24.331730769230766 27.360576923076923  L 18.560096153846153 21.605769230769234  C 16.552083333333336 22.996794871794876  14.314102564102566 23.692307692307693  11.846153846153847 23.692307692307693  C 10.24198717948718 23.692307692307693  8.707932692307692 23.381009615384617  7.243990384615384 22.758413461538463  C 5.780048076923077 22.135817307692307  4.518028846153846 21.294471153846153  3.4579326923076925 20.234375  C 2.3978365384615383 19.174278846153847  1.556490384615385 17.912259615384617  0.9338942307692307 16.448317307692307  C 0.3112980769230769 14.984375  0 13.450320512820511  0 11.846153846153847  C 0 10.241987179487175  0.3112980769230769 8.707932692307692  0.9338942307692307 7.243990384615384  C 1.556490384615385 5.780048076923077  2.3978365384615383 4.518028846153848  3.4579326923076925 3.457932692307692  C 4.518028846153846 2.3978365384615397  5.780048076923077 1.5564903846153841  7.243990384615384 0.9338942307692317  C 8.707932692307692 0.3112980769230762  10.24198717948718 0  11.846153846153847 0  C 13.450320512820513 0  14.984375 0.3112980769230762  16.448317307692307 0.9338942307692317  C 17.912259615384617 1.5564903846153841  19.174278846153847 2.3978365384615397  20.234375 3.457932692307692  C 21.294471153846153 4.518028846153848  22.135817307692307 5.780048076923077  22.75841346153846 7.243990384615384  C 23.381009615384617 8.707932692307692  23.692307692307693 10.241987179487175  23.692307692307693 11.846153846153847  C 23.692307692307693 14.314102564102562  22.996794871794876 16.552083333333332  21.605769230769234 18.560096153846153  L 27.377403846153847 24.331730769230766  Z " fill-rule="nonzero" fill="#3a8891" stroke="none" transform="matrix(1 0 0 1 360 26 )" />
  </g>
</svg>