<?xml version="1.0" encoding="utf-8"?>
<svg version="1.1" xmlns:xlink="http://www.w3.org/1999/xlink" width="25px" height="28px" xmlns="http://www.w3.org/2000/svg">
  <g transform="matrix(1 0 0 1 -15 -28 )">
    <path d="M 24.448029891304348 11.223363286264442  C 24.816009963768114 11.67265725288832  25 12.214805305947795  25 12.849807445442874  L 25 15.150192554557126  C 25 15.785194694052201  24.816009963768114 16.32734274711168  24.448029891304348 16.77663671373556  C 24.080049818840582 17.225930680359436  23.601675724637683 17.450577663671375  23.012907608695652 17  L 11.056385869565217 17  L 16.032608695652172 22.734274711168162  C 16.462862318840582 23.165596919127086  16.677989130434785 23.704749679075736  16.677989130434785 24.35173299101412  C 16.677989130434785 24.998716302952506  16.462862318840582 25.537869062901155  16.032608695652172 25.96919127086008  L 14.758831521739129 27.335044929396663  C 14.339900362318842 27.778348309798886  13.830389492753623 28  13.230298913043478 28  C 12.64153079710145 28  12.126358695652174 27.778348309798886  11.684782608695652 27.335044929396663  L 0.6283967391304348 15.617458279845957  C 0.20946557971014507 15.17415489944373  0 14.635002139495077  0 14  C 0 13.376979032948224  0.20946557971014507 12.83183568677792  0.6283967391304348 12.364569961489089  L 11.684782608695652 0.6829268292682933  C 12.115036231884059 0.22764227642276236  12.630208333333334 0  13.230298913043478 0  C 13.819067028985508 0  14.328577898550726 0.22764227642276236  14.758831521739129 0.6829268292682933  L 16.032608695652172 2.0128369704749676  C 16.462862318840582 2.4681215233204954  16.677989130434785 3.013264869490796  16.677989130434785 3.6482670089858793  C 16.677989130434785 4.283269148480956  16.462862318840582 4.8284124946512605  16.032608695652172 5.283697047496791  L 11.056385869565217 11  L 23.012907608695652 11  C 23.601675724637683 10.549422336328627  24.080049818840582 10.774069319640564  24.448029891304348 11.223363286264442  Z " fill-rule="nonzero" fill="#3a8891" stroke="none" transform="matrix(1 0 0 1 15 28 )" />
  </g>
</svg>