<?xml version="1.0" encoding="utf-8"?>
<svg version="1.1" xmlns:xlink="http://www.w3.org/1999/xlink" width="21px" height="19px" xmlns="http://www.w3.org/2000/svg">
  <g transform="matrix(1 0 0 1 -30 -395 )">
    <path d="M 8.27421875 8.637920673076923  C 8.890364583333334 7.9946915064102555  9.632291666666667 7.673076923076922  10.5 7.673076923076923  C 11.367708333333336 7.673076923076922  12.109635416666668 7.9946915064102555  12.725781249999999 8.637920673076923  C 13.341927083333335 9.28114983974359  13.65 10.055689102564102  13.65 10.96153846153846  C 13.65 11.86738782051282  13.341927083333335 12.641927083333332  12.725781249999999 13.28515625  C 12.109635416666668 13.928385416666666  11.367708333333336 14.25  10.5 14.25  C 9.632291666666667 14.25  8.890364583333334 13.928385416666666  8.27421875 13.28515625  C 7.658072916666668 12.641927083333332  7.35 11.86738782051282  7.35 10.96153846153846  C 7.35 10.055689102564102  7.658072916666668 9.28114983974359  8.27421875 8.637920673076923  Z M 15.75 2.9230769230769234  L 18.2 2.9230769230769234  C 18.97291666666667 2.9230769230769234  19.632812500000004 3.2085336538461533  20.1796875 3.7794471153846163  C 20.7265625 4.350360576923077  21.000000000000004 5.039262820512819  21 5.846153846153847  L 21 16.076923076923077  C 21.000000000000004 16.883814102564102  20.7265625 17.572716346153847  20.1796875 18.143629807692307  C 19.632812500000004 18.71454326923077  18.97291666666667 19  18.2 19  L 2.8 19  C 2.0270833333333336 19  1.3671875 18.71454326923077  0.8203125 18.143629807692307  C 0.2734375 17.572716346153847  0 16.883814102564102  0 16.076923076923077  L 0 5.846153846153847  C 0 5.039262820512819  0.2734375 4.350360576923077  0.8203125 3.7794471153846163  C 1.3671875 3.2085336538461533  2.0270833333333336 2.9230769230769234  2.8 2.9230769230769234  L 5.25 2.9230769230769234  L 5.8078125 1.370192307692307  C 5.9463541666666675 0.9971955128205124  6.199739583333334 0.6755809294871784  6.5679687499999995 0.40534855769230704  C 6.936197916666668 0.1351161858974378  7.3135416666666675 0  7.699999999999999 0  L 13.299999999999999 0  C 13.686458333333334 0  14.063802083333334 0.1351161858974378  14.43203125 0.40534855769230704  C 14.800260416666669 0.6755809294871784  15.053645833333334 0.9971955128205124  15.1921875 1.370192307692307  L 15.75 2.9230769230769234  Z M 7.03828125 14.575420673076923  C 7.9971354166666675 15.576422275641027  9.151041666666668 16.076923076923077  10.5 16.076923076923077  C 11.848958333333334 16.076923076923077  13.002864583333334 15.576422275641027  13.96171875 14.575420673076923  C 14.920572916666666 13.57441907051282  15.399999999999999 12.369791666666666  15.399999999999999 10.96153846153846  C 15.399999999999999 9.553285256410257  14.920572916666666 8.348657852564102  13.96171875 7.34765625  C 13.002864583333334 6.346654647435896  11.848958333333334 5.846153846153847  10.5 5.846153846153847  C 9.151041666666668 5.846153846153847  7.9971354166666675 6.346654647435896  7.03828125 7.34765625  C 6.079427083333334 8.348657852564102  5.6 9.553285256410257  5.6 10.96153846153846  C 5.6 12.369791666666666  6.079427083333334 13.57441907051282  7.03828125 14.575420673076923  Z " fill-rule="nonzero" fill="#000000" stroke="none" transform="matrix(1 0 0 1 30 395 )" />
  </g>
</svg>