<?xml version="1.0" encoding="utf-8"?>
<svg version="1.1" xmlns:xlink="http://www.w3.org/1999/xlink" width="22px" height="22px" xmlns="http://www.w3.org/2000/svg">
  <g transform="matrix(1 0 0 1 -352 -394 )">
    <path d="M 21.21472392638037 0  C 21.37832310838446 0  21.52556237218814 0.04501488095238293  21.65644171779141 0.1350446428571439  C 21.92638036809816 0.33147321428571463  22.036809815950924 0.5933779761904756  21.987730061349694 0.9207589285714293  L 18.846625766871167 19.777901785714285  C 18.805725971370144 20.015252976190474  18.67484662576687 20.19940476190476  18.45398773006135 20.330357142857142  C 18.33946830265849 20.395833333333332  18.212678936605318 20.42857142857143  18.073619631901842 20.42857142857143  C 17.983640081799592 20.42857142857143  17.88548057259714 20.408110119047617  17.779141104294478 20.3671875  L 12.220858895705522 18.095982142857142  L 9.251533742331288 21.71763392857143  C 9.104294478527608 21.905877976190474  8.9038854805726 22  8.650306748466258 22  C 8.5439672801636 22  8.45398773006135 21.983630952380953  8.38036809815951 21.950892857142858  C 8.224948875255624 21.89360119047619  8.100204498977506 21.797433035714285  8.006134969325153 21.662388392857142  C 7.912065439672802 21.52734375  7.865030674846626 21.37797619047619  7.865030674846626 21.214285714285715  L 7.865030674846626 16.9296875  L 18.466257668711656 3.9285714285714293  L 5.3496932515337425 15.284598214285715  L 0.5030674846625767 13.295758928571429  C 0.20040899795501022 13.181175595238093  0.03680981595092025 12.95610119047619  0.012269938650306749 12.620535714285715  C -0.004089979550102251 12.293154761904761  0.12678936605316973 12.05171130952381  0.40490797546012275 11.896205357142858  L 20.822085889570552 0.11049107142857073  C 20.94478527607362 0.036830357142856096  21.075664621676893 0  21.21472392638037 0  Z " fill-rule="nonzero" fill="#000000" stroke="none" transform="matrix(1 0 0 1 352 394 )" />
  </g>
</svg>